HIERARCHY
ROOT Hips
{
	OFFSET	0.000000	0.000000	0.000000
	CHANNELS 6 Xposition Yposition Zposition Zrotation Xrotation Yrotation
	JOINT LeftHip
	{
		OFFSET	4.740440	-3.195970	-0.322709
		CHANNELS 3 Zrotation Xrotation Yrotation
		JOINT LeftKnee
		{
			OFFSET	-1.605680	-15.592300	1.005510
			CHANNELS 3 Zrotation Xrotation Yrotation
			JOINT LeftAnkle
			{
				OFFSET	-0.632401	-16.421000	-1.413730
				CHANNELS 3 Zrotation Xrotation Yrotation
				End Site
				{
					OFFSET	0.008423	-3.933000	-1.776750
				}
			}
		}
	}
	JOINT RightHip
	{
		OFFSET	-4.740440	-3.195970	-0.322709
		CHANNELS 3 Zrotation Xrotation Yrotation
		JOINT RightKnee
		{
			OFFSET	1.605680	-15.592300	1.005510
			CHANNELS 3 Zrotation Xrotation Yrotation
			JOINT RightAnkle
			{
				OFFSET	0.632401	-16.421000	-1.413730
				CHANNELS 3 Zrotation Xrotation Yrotation
				End Site
				{
					OFFSET	-0.008423	-3.933000	-1.776750
				}
			}
		}
	}
	JOINT Chest
	{
		OFFSET	0.000000	3.468200	0.078401
		CHANNELS 3 Zrotation Xrotation Yrotation
		JOINT LeftCollar
		{
			OFFSET	3.857650	15.070700	-0.011583
			CHANNELS 3 Zrotation Xrotation Yrotation
			JOINT LeftShoulder
			{
				OFFSET	3.979720	-1.940530	-0.165223
				CHANNELS 3 Zrotation Xrotation Yrotation
				JOINT LeftElbow
				{
					OFFSET	0.615844	-10.986600	-0.673886
					CHANNELS 3 Zrotation Xrotation Yrotation
					JOINT LeftWrist
					{
						OFFSET	0.826843	-10.854500	1.034220
						CHANNELS 3 Zrotation Xrotation Yrotation
						End Site
						{
							OFFSET	-1.679080	-8.456540	0.936217
						}
					}
				}
			}
		}
		JOINT RightCollar
		{
			OFFSET	-3.857650	15.070700	-0.011583
			CHANNELS 3 Zrotation Xrotation Yrotation
			JOINT RightShoulder
			{
				OFFSET	-3.979720	-1.940530	-0.165223
				CHANNELS 3 Zrotation Xrotation Yrotation
				JOINT RightElbow
				{
					OFFSET	-0.615845	-10.986600	-0.673886
					CHANNELS 3 Zrotation Xrotation Yrotation
					JOINT RightWrist
					{
						OFFSET	-0.826843	-10.854500	1.034220
						CHANNELS 3 Zrotation Xrotation Yrotation
						End Site
						{
							OFFSET	1.679080	-8.456540	0.936217
						}
					}
				}
			}
		}
		JOINT Neck
		{
			OFFSET	0.000000	15.101400	0.055730
			CHANNELS 3 Zrotation Xrotation Yrotation
			JOINT Head
			{
				OFFSET	0.000000	4.185120	1.488260
				CHANNELS 3 Zrotation Xrotation Yrotation
				End Site
				{
					OFFSET	0.000000	7.773420	-0.106016
				}
			}
		}
	}
}
MOTION
Frames:     19
Frame Time: 0.016667
-4.782527	39.088242	-4.104914	1.323263	-12.598086	-7.321975	5.763625	10.393442	0.668187	-0.780509	3.997461	12.304726	-7.281304	2.666090	-0.599719	-14.798395	5.681087	-6.371274	-3.464179	10.466770	-7.482235	10.212034	-1.487396	9.007915	-0.252211	12.774141	0.191087	-5.937390	4.395349	-3.786843	5.193694	-7.411923	2.963273	-4.840328	-2.409933	-8.400674	10.213820	0.295874	-21.241104	-3.131548	0.392995	3.768900	-1.045746	-0.834224	-1.601619	-3.033693	-5.202703	14.202040	-15.610771	-2.612375	7.764285	-6.701180	4.792036	1.859943	3.439274	-3.005247	-3.226834	
-4.782443	39.088364	-4.108667	1.323263	-12.598086	-7.321975	5.761936	10.386784	0.642991	-0.776332	3.994547	12.332145	-7.283423	2.676167	-0.600511	-14.789639	5.664963	-6.404976	-3.480859	10.479808	-7.447977	10.212034	-1.487396	9.007915	-0.287069	12.811687	0.186866	-5.920381	4.392448	-3.823821	5.233773	-7.424785	3.012953	-4.852694	-2.422462	-8.399111	10.210390	0.341828	-21.373606	-3.131402	0.395091	3.762854	-1.003356	-0.876658	-1.623281	-3.044553	-5.181425	14.201207	-15.626250	-2.631345	7.719289	-6.670838	4.754180	1.846799	3.462934	-2.997778	-3.244567	
-4.783440	39.088402	-4.110835	1.330116	-12.574313	-7.320693	5.757133	10.359643	0.634952	-0.771603	3.986875	12.345100	-7.285803	2.687516	-0.601428	-14.783138	5.622059	-6.447842	-3.499249	10.495634	-7.410446	10.212034	-1.487396	9.007915	-0.302253	12.799702	0.185558	-5.926714	4.417929	-3.869308	5.275488	-7.439938	3.066168	-4.868448	-2.438966	-8.398677	10.209679	0.353125	-21.406300	-3.122280	0.384820	3.765165	-0.995983	-0.879045	-1.640303	-3.043450	-5.177971	14.178189	-15.641488	-2.646321	7.681291	-6.659813	4.741321	1.849288	3.486261	-2.989218	-3.290344	
-4.784057	39.089165	-4.115458	1.320907	-12.571987	-7.336977	5.763726	10.359921	0.649512	-0.766354	3.975438	12.347346	-7.288425	2.700040	-0.602458	-14.765568	5.599944	-6.471528	-3.517678	10.509541	-7.372578	10.212034	-1.487396	9.007915	-0.319344	12.823301	0.197409	-5.920340	4.426875	-3.907400	5.313032	-7.451416	3.114008	-4.881955	-2.455561	-8.403670	10.208327	0.371515	-21.449137	-3.085269	0.365780	3.757257	-0.999830	-0.884289	-1.662264	-3.047833	-5.178587	14.189046	-15.656112	-2.638130	7.646182	-6.637823	4.715660	1.854266	3.496779	-2.968306	-3.341449	
-4.784153	39.090481	-4.121470	1.302150	-12.567381	-7.369834	5.777198	10.360600	0.678843	-0.760841	3.963426	12.349689	-7.291177	2.713192	-0.603526	-14.738585	5.584621	-6.484345	-3.536422	10.511702	-7.332554	10.212034	-1.487396	9.007915	-0.322960	12.847723	0.199238	-5.923128	4.432184	-3.923339	5.349421	-7.464401	3.157520	-4.892256	-2.470948	-8.411963	10.206355	0.382013	-21.461536	-3.070130	0.337280	3.786954	-0.986010	-0.883932	-1.707920	-3.057486	-5.181791	14.234997	-15.666620	-2.605760	7.620350	-6.624794	4.685374	1.882232	3.481119	-2.925394	-3.394808	
-4.784571	39.091599	-4.127265	1.287195	-12.563701	-7.396028	5.787941	10.361148	0.702228	-0.754915	3.950505	12.352218	-7.294135	2.727339	-0.604677	-14.719415	5.581869	-6.485144	-3.546171	10.504877	-7.310543	10.212034	-1.487396	9.007915	-0.327230	12.872416	0.190296	-5.926455	4.433782	-3.930497	5.381393	-7.475838	3.187301	-4.899809	-2.485596	-8.413731	10.200506	0.403259	-21.520258	-3.056780	0.308779	3.821054	-0.971271	-0.883573	-1.756575	-3.068584	-5.175800	14.267694	-15.668072	-2.616718	7.633413	-6.616914	4.689359	1.911733	3.448848	-2.924073	-3.404891	
-4.785187	39.092606	-4.132992	1.274347	-12.560521	-7.418565	5.797167	10.361609	0.722353	-0.748682	3.936924	12.354875	-7.297247	2.742209	-0.605885	-14.708398	5.575366	-6.466351	-3.552326	10.476049	-7.331856	10.214796	-1.454520	9.024792	-0.337233	12.908247	0.161000	-5.924029	4.416381	-3.912873	5.401573	-7.483601	3.206017	-4.899549	-2.498923	-8.416241	10.195847	0.416193	-21.545238	-3.054068	0.286088	3.865588	-0.951917	-0.902269	-1.768473	-3.068066	-5.172953	14.249836	-15.674414	-2.630185	7.649436	-6.607175	4.674637	1.948533	3.427001	-2.916187	-3.417318	
-4.786616	39.092953	-4.137424	1.273451	-12.560332	-7.420062	5.797821	10.361669	0.723677	-0.742070	3.922519	12.357686	-7.300546	2.757982	-0.607158	-14.698581	5.569558	-6.498316	-3.572755	10.452814	-7.324533	10.216821	-1.424231	9.046420	-0.341531	12.919338	0.146030	-5.921250	4.405037	-3.898651	5.397672	-7.473029	3.188598	-4.891506	-2.510930	-8.418489	10.192081	0.422864	-21.544376	-3.051880	0.289310	3.870177	-0.949535	-0.918105	-1.758952	-3.064003	-5.170436	14.218797	-15.684377	-2.642301	7.635463	-6.606135	4.686810	1.962537	3.414090	-2.898074	-3.467138	
-4.788081	39.093246	-4.141695	1.273451	-12.560332	-7.420062	5.797821	10.361669	0.723677	-0.735539	3.908285	12.360485	-7.303802	2.773569	-0.608433	-14.690603	5.575658	-6.526448	-3.589047	10.419866	-7.327188	10.218404	-1.394555	9.072305	-0.350660	12.939104	0.118506	-5.914501	4.382305	-3.871204	5.392631	-7.461362	3.167690	-4.881487	-2.521750	-8.432299	10.185761	0.434817	-21.546642	-3.050170	0.302211	3.871969	-0.939317	-0.942490	-1.763689	-3.061845	-5.180673	14.218907	-15.688087	-2.651797	7.661549	-6.601846	4.688780	1.987687	3.392618	-2.882442	-3.500945	
-4.789135	39.093933	-4.146878	1.266579	-12.558618	-7.432159	5.802749	10.361911	0.734487	-0.728968	3.893963	12.363295	-7.307078	2.789252	-0.609710	-14.677489	5.577665	-6.541726	-3.603373	10.390899	-7.331679	10.219599	-1.368222	9.097776	-0.361914	12.955718	0.125747	-5.899653	4.364119	-3.865880	5.390100	-7.462795	3.132025	-4.879669	-2.515945	-8.423643	10.188690	0.433140	-21.521423	-3.041094	0.316438	3.852900	-0.926311	-0.975278	-1.767009	-3.064404	-5.180671	14.221992	-15.699851	-2.640119	7.651393	-6.589332	4.695359	1.990785	3.370198	-2.872180	-3.523473	
-4.789643	39.094681	-4.152342	1.257826	-12.556456	-7.447508	5.808484	10.360085	0.740046	-0.722812	3.882611	12.374210	-7.310143	2.803918	-0.610896	-14.663345	5.578309	-6.552219	-3.617625	10.360456	-7.335650	10.221260	-1.340156	9.120504	-0.376447	12.976370	0.137138	-5.888726	4.360142	-3.884399	5.400904	-7.480472	3.125773	-4.891427	-2.503050	-8.395370	10.204432	0.431311	-21.549246	-3.040415	0.318557	3.848088	-0.901191	-1.000872	-1.781731	-3.071300	-5.177978	14.245445	-15.705909	-2.625942	7.634530	-6.572166	4.695709	1.993322	3.371109	-2.892001	-3.522984	
-4.789314	39.095451	-4.158319	1.247493	-12.553903	-7.465631	5.814380	10.354139	0.732367	-0.717211	3.876304	12.400912	-7.312960	2.817414	-0.612003	-14.645507	5.575860	-6.549774	-3.631549	10.336921	-7.347784	10.222478	-1.316824	9.141150	-0.379738	12.985802	0.152243	-5.887208	4.366745	-3.904311	5.411578	-7.497088	3.124614	-4.907261	-2.487626	-8.371947	10.244595	0.416744	-21.569727	-3.048340	0.328745	3.842498	-0.881282	-1.023347	-1.785252	-3.074366	-5.172131	14.245551	-15.710403	-2.617127	7.643679	-6.564654	4.707242	1.993633	3.372477	-2.914530	-3.519626	
-4.788746	39.095943	-4.167033	1.236043	-12.551079	-7.485724	5.822427	10.337083	0.723641	-0.713545	3.882409	12.430060	-7.315495	2.829530	-0.612986	-14.631449	5.573317	-6.547814	-3.638963	10.322527	-7.353408	10.222625	-1.303533	9.159258	-0.377531	12.989930	0.169682	-5.888763	4.375369	-3.921183	5.420749	-7.510109	3.131854	-4.925811	-2.470767	-8.361563	10.284510	0.396582	-21.568106	-3.052519	0.334072	3.839552	-0.872760	-1.035029	-1.780957	-3.076108	-5.162070	14.232871	-15.714218	-2.613885	7.652691	-6.561465	4.721588	1.993119	3.360063	-2.906163	-3.546779	
-4.788705	39.095688	-4.179204	1.229261	-12.549438	-7.497564	5.829861	10.304897	0.712987	-0.712344	3.904360	12.453302	-7.317851	2.840812	-0.613910	-14.621101	5.573388	-6.553729	-3.643802	10.319259	-7.355796	10.221280	-1.302280	9.176674	-0.383623	13.000387	0.179080	-5.879176	4.364642	-3.919890	5.421376	-7.510867	3.133101	-4.942642	-2.456416	-8.363467	10.304571	0.393766	-21.600998	-3.042360	0.322576	3.842539	-0.872760	-1.035029	-1.780957	-3.079010	-5.151631	14.225966	-15.717283	-2.609628	7.655850	-6.553423	4.731933	1.993596	3.344214	-2.901552	-3.564319	
-4.789234	39.094944	-4.191241	1.229261	-12.549438	-7.497564	5.833136	10.269981	0.695677	-0.711655	3.929012	12.472471	-7.320167	2.851870	-0.614796	-14.616320	5.576990	-6.570397	-3.650901	10.314210	-7.340860	10.221210	-1.302175	9.177885	-0.400546	13.018619	0.177118	-5.863039	4.345867	-3.916008	5.421376	-7.510867	3.133101	-4.958086	-2.443252	-8.365220	10.320768	0.389408	-21.620409	-3.025954	0.304016	3.847335	-0.872760	-1.035029	-1.780957	-3.083071	-5.141061	14.225810	-15.719413	-2.604594	7.652295	-6.539306	4.736091	1.995360	3.324186	-2.902294	-3.568514	
-4.789532	39.094009	-4.202713	1.229261	-12.549438	-7.497564	5.837260	10.232879	0.683788	-0.713479	3.960403	12.485245	-7.321448	2.858030	-0.615327	-14.611178	5.580844	-6.588281	-3.658647	10.308698	-7.323513	10.221210	-1.302175	9.177885	-0.412497	13.031493	0.175729	-5.851644	4.332608	-3.913257	5.421376	-7.510867	3.133101	-4.966387	-2.436183	-8.366150	10.351378	0.378411	-21.632187	-3.014369	0.290909	3.850731	-0.872760	-1.035029	-1.780957	-3.086936	-5.131002	14.225663	-15.721545	-2.599302	7.648903	-6.529641	4.742671	1.996320	3.305229	-2.901202	-3.572729	
-4.790763	39.092918	-4.212385	1.229261	-12.549438	-7.497564	5.844435	10.200569	0.708304	-0.718382	3.993116	12.459802	-7.321448	2.858030	-0.615327	-14.605765	5.584874	-6.607031	-3.666788	10.302919	-7.305328	10.221210	-1.302175	9.177885	-0.424810	13.044751	0.174303	-5.851783	4.327475	-3.898604	5.432436	-7.519561	3.122866	-4.966387	-2.436183	-8.366150	10.369198	0.349007	-21.640408	-3.002430	0.277413	3.854231	-0.872760	-1.035029	-1.780957	-3.089048	-5.125507	14.225573	-15.725872	-2.581242	7.646783	-6.518127	4.730386	1.998910	3.285763	-2.882143	-3.579490	
-4.792285	39.092941	-4.211670	1.229261	-12.549438	-7.497564	5.847184	10.207709	0.746024	-0.718509	3.986492	12.421414	-7.321448	2.858030	-0.615327	-14.600432	5.588828	-6.625501	-3.674806	10.297242	-7.287416	10.221210	-1.302175	9.177885	-0.437974	13.058930	0.172786	-5.854289	4.323581	-3.880628	5.446446	-7.530494	3.109916	-4.966387	-2.436183	-8.366150	10.386076	0.317890	-21.649052	-2.995684	0.260404	3.863864	-0.866689	-1.032774	-1.786787	-3.089048	-5.125507	14.225573	-15.729300	-2.564786	7.646484	-6.504569	4.716676	2.010523	3.259474	-2.863361	-3.587921	
-4.792411	39.092228	-4.220993	1.221855	-12.574830	-7.498948	5.856379	10.206089	0.752046	-0.722231	4.014250	12.411930	-7.321448	2.858030	-0.615327	-14.591554	5.612789	-6.639400	-3.684138	10.296685	-7.267345	10.221210	-1.302175	9.177885	-0.447579	13.099545	0.171219	-5.857644	4.320125	-3.861457	5.461508	-7.542217	3.095990	-4.966387	-2.436183	-8.366150	10.389394	0.291085	-21.656176	-2.998792	0.238829	3.883574	-0.850383	-1.026829	-1.802520	-3.090663	-5.121297	14.225509	-15.730525	-2.560931	7.645066	-6.489214	4.704010	2.035252	3.223778	-2.847494	-3.597934	
